<?xml version="1.0" encoding="utf-8"?>
<!-- Generator: Adobe Illustrator 16.0.0, SVG Export Plug-In . SVG Version: 6.00 Build 0)  -->
<!DOCTYPE svg PUBLIC "-//W3C//DTD SVG 1.1//EN" "http://www.w3.org/Graphics/SVG/1.1/DTD/svg11.dtd">
<svg version="1.1" id="Layer_1" xmlns="http://www.w3.org/2000/svg" xmlns:xlink="http://www.w3.org/1999/xlink" x="0px" y="0px"
	 width="256.958px" height="256.953px" viewBox="0.209 -233.287 256.958 256.953"
	 enable-background="new 0.209 -233.287 256.958 256.953" xml:space="preserve">
<path fill="#F2F2F2" stroke="#2E8DFF" stroke-width="2" stroke-miterlimit="10" d="M3.104-104.816
	c0-69.348,56.229-125.576,125.581-125.576c69.37,0,125.587,56.228,125.587,125.576c0,69.358-56.217,125.587-125.587,125.587
	C59.333,20.771,3.104-35.458,3.104-104.816z"/>
<path fill="#FFFFFF" stroke="#003187" stroke-width="3" stroke-miterlimit="10" d="M150.133-91.049H138.81
	c-10.407,0-18.872,8.433-18.872,18.861v11.28h-11.312V-45.8h11.312v30.185h15.098V-45.8h11.323l3.774-15.108h-15.098v-11.28
	c0-2.094,1.68-3.785,3.774-3.785h11.323V-91.049z"/>
<g>
	<path fill="#F7F7F7" d="M146.86-150.883c0,0,15.643-32.699,44.017-33.201c28.373-0.497,45.162,31.646,45.162,31.646
		s-15.654,32.715-44.017,33.217C163.627-118.725,146.86-150.883,146.86-150.883z"/>
	<path fill="#00A8C4" d="M146.681-150.971c0.908-2.258,2.011-4.425,3.2-6.548c1.21-2.111,2.506-4.18,3.932-6.164
		c1.413-1.993,2.926-3.926,4.572-5.75c1.638-1.831,3.367-3.593,5.231-5.22c1.863-1.626,3.841-3.137,5.924-4.507
		c2.086-1.368,4.319-2.52,6.614-3.534c2.288-1.045,4.73-1.738,7.188-2.289l1.859-0.354c0.621-0.109,1.254-0.144,1.88-0.218
		c0.627-0.074,1.254-0.128,1.886-0.134l1.946-0.061l1.806,0.083c0.588,0.016,1.22,0.083,1.864,0.168
		c0.634,0.083,1.278,0.139,1.898,0.248l1.843,0.363c2.433,0.576,4.828,1.29,7.09,2.303c2.262,1.003,4.468,2.108,6.529,3.438
		c2.078,1.299,4.067,2.721,5.964,4.249c1.908,1.516,3.699,3.164,5.45,4.848c1.754,1.683,3.386,3.484,4.989,5.31
		c1.585,1.841,3.106,3.738,4.572,5.684c1.451,1.967,2.825,3.947,4.09,6.11l0.261,0.445l-0.243,0.534
		c-1.039,2.282-2.202,4.404-3.451,6.524c-1.248,2.11-2.605,4.158-4.063,6.138c-2.902,3.97-6.26,7.635-10.016,10.896
		c-1.885,1.624-3.888,3.123-5.985,4.496c-2.093,1.384-4.336,2.554-6.645,3.585c-2.302,1.06-4.759,1.775-7.235,2.346l-1.875,0.368
		c-0.627,0.111-1.263,0.169-1.894,0.255c-0.632,0.088-1.265,0.157-1.902,0.177l-0.954,0.052l-1.031,0.039l-1.806-0.053
		c-0.305-0.012-0.595-0.011-0.911-0.033l-0.977-0.093c-0.647-0.07-1.31-0.113-1.942-0.21l-1.88-0.318
		c-2.486-0.507-4.952-1.158-7.276-2.146c-2.329-0.963-4.595-2.066-6.718-3.386c-2.121-1.319-4.143-2.776-6.051-4.354
		c-3.795-3.18-7.184-6.777-10.131-10.673c-1.49-1.936-2.853-3.961-4.13-6.031c-1.271-2.075-2.47-4.185-3.471-6.405l-0.039-0.088
		L146.681-150.971z M147.102-150.887c2.594,3.996,5.559,7.739,8.751,11.219c3.217,3.51,6.725,6.718,10.5,9.502
		c1.891,1.388,3.873,2.629,5.904,3.751c2.021,1.143,4.148,2.061,6.304,2.848c2.157,0.795,4.387,1.325,6.624,1.735l1.688,0.247
		c0.561,0.073,1.103,0.09,1.653,0.141l0.823,0.066c0.285,0.015,0.598,0.007,0.896,0.012l1.807,0.012
		c0.026,0-0.126-0.001-0.049-0.001l0.026-0.002l0.054-0.003l0.105-0.007l0.213-0.014l0.425-0.027l0.85-0.044
		c0.568-0.013,1.132-0.073,1.694-0.152c0.562-0.076,1.129-0.123,1.688-0.22l1.672-0.323c2.212-0.511,4.406-1.139,6.52-2.02
		c2.112-0.875,4.188-1.878,6.151-3.102c1.968-1.211,3.87-2.549,5.679-4.021c1.805-1.477,3.52-3.072,5.176-4.736
		c1.66-1.662,3.211-3.438,4.725-5.249c1.502-1.822,2.937-3.707,4.303-5.645c1.348-1.937,2.656-3.96,3.77-5.99l0.017,0.979
		c-1.036-2.07-2.277-4.145-3.562-6.141c-1.288-2.007-2.695-3.94-4.2-5.794c-1.488-1.869-3.108-3.63-4.802-5.312
		c-1.691-1.686-3.517-3.23-5.395-4.694c-1.901-1.436-3.914-2.712-5.989-3.852c-2.083-1.131-4.268-2.047-6.49-2.794
		c-2.219-0.77-4.517-1.237-6.807-1.578c-2.33-0.341-4.483-0.369-6.97-0.323c-2.181,0.139-4.546,0.418-6.76,0.919
		c-2.229,0.529-4.439,1.178-6.566,2.072c-2.124,0.891-4.211,1.909-6.181,3.147c-1.982,1.212-3.911,2.536-5.74,4.005
		c-1.815,1.483-3.588,3.037-5.273,4.694c-1.682,1.66-3.294,3.402-4.841,5.208c-1.533,1.817-3.029,3.679-4.435,5.615
		C149.674-154.856,148.329-152.906,147.102-150.887z"/>
</g>
<g>
	<path d="M185.313-147.78c6.709-0.12,12.239,5.23,12.359,11.939c0.131,6.72-5.226,12.256-11.935,12.381
		c-6.72,0.109-12.272-5.242-12.381-11.956C173.237-142.129,178.594-147.66,185.313-147.78z"/>
	<path fill="#00A8C4" d="M185.32-147.979c0,0,0.298,0.007,0.857,0.02c0.277-0.001,0.628,0.02,1.045,0.065
		c0.421,0.025,0.894,0.086,1.424,0.18c1.057,0.184,2.374,0.448,3.818,1.088c1.438,0.625,3.037,1.611,4.36,3.17
		c1.307,1.553,2.267,3.685,2.484,6.03c0.037,0.609,0.053,1.125,0.011,1.832c-0.072,0.533-0.116,1.017-0.277,1.688
		c-0.261,1.272-0.76,2.354-1.352,3.439c-1.223,2.138-2.945,3.916-4.935,5.364c-0.513,0.344-1.03,0.687-1.589,0.965
		c-0.532,0.331-1.122,0.553-1.701,0.805c-0.593,0.218-1.19,0.453-1.818,0.587c-0.311,0.086-0.623,0.177-0.943,0.22
		c-0.344,0.054-0.583,0.112-1.021,0.161c-1.104,0.136-2.619,0.113-3.906-0.122c-1.311-0.276-2.597-0.734-3.766-1.407
		c-1.16-0.684-2.222-1.524-3.145-2.492c-0.9-0.983-1.683-2.071-2.266-3.249c-0.576-1.175-1.015-2.415-1.195-3.671
		c-0.126-0.624-0.14-1.251-0.178-1.868l-0.004-0.115l-0.003-0.058l0.001-0.159l0.012-0.196l0.022-0.391
		c0.021-0.275,0.014-0.483,0.06-0.808c0.096-0.63,0.18-1.299,0.354-1.837c0.079-0.28,0.157-0.558,0.234-0.834
		c0.095-0.271,0.211-0.531,0.315-0.792c0.414-1.046,1.024-1.955,1.649-2.763c1.315-1.589,2.892-2.619,4.314-3.29
		c1.429-0.684,2.738-0.995,3.792-1.209c0.529-0.11,1.001-0.185,1.416-0.22c0.411-0.057,0.761-0.088,1.046-0.093
		c0.568-0.027,0.871-0.042,0.871-0.042L185.32-147.979z M185.317-147.58c0,0-0.293,0.026-0.841,0.075
		c-0.275,0.007-0.607,0.086-0.994,0.176c-0.393,0.068-0.825,0.221-1.298,0.407c-0.936,0.387-2.027,1.003-2.993,1.987
		c-0.975,0.965-1.842,2.224-2.477,3.646c-0.302,0.721-0.595,1.458-0.794,2.245c-0.242,0.768-0.342,1.637-0.405,2.352
		c-0.027,0.183-0.011,0.494-0.019,0.738l-0.003,0.391l-0.002,0.196c0.001-0.039-0.001,0.122,0.001-0.081l0.003,0.021l0.004,0.041
		l0.009,0.081c0.046,0.432,0.04,0.875,0.142,1.307c0.112,0.881,0.397,1.745,0.723,2.611c0.343,0.865,0.855,1.669,1.425,2.454
		c0.598,0.768,1.326,1.444,2.123,2.061c0.817,0.588,1.715,1.088,2.68,1.503c1.006,0.406,1.875,0.665,3.159,0.814
		c0.429,0.014,1.07,0.09,1.596,0.03c0.558-0.019,1.102-0.128,1.654-0.23c1.079-0.287,2.129-0.724,3.055-1.354
		c0.918-0.633,1.732-1.41,2.352-2.307c0.601-0.908,1.059-1.883,1.315-2.883c0.243-0.983,0.389-2.031,0.35-2.904
		c0.028-0.393-0.039-0.978-0.068-1.497c-0.062-0.431-0.125-0.856-0.188-1.276c-0.338-1.726-0.907-3.266-1.627-4.661
		c-0.72-1.391-1.64-2.609-2.65-3.543c-1.004-0.95-2.119-1.529-3.07-1.88c-0.482-0.167-0.92-0.304-1.31-0.354
		c-0.386-0.072-0.72-0.138-1.004-0.132c-0.559-0.023-0.857-0.036-0.857-0.036L185.317-147.58z"/>
</g>
<g>
	<path fill="#F7F7F7" d="M23.668-151.189c0,0,16.581-34.035,46.209-34.324c29.639-0.306,46.902,33.386,46.902,33.386
		s-16.593,34.03-46.221,34.34C40.92-117.498,23.668-151.189,23.668-151.189z"/>
	<path fill="#00A8C4" d="M23.488-151.277c0.973-2.347,2.146-4.596,3.409-6.8c1.282-2.191,2.655-4.337,4.161-6.395
		c1.493-2.066,3.089-4.069,4.822-5.957c1.725-1.896,3.545-3.718,5.502-5.399c1.958-1.68,4.033-3.238,6.216-4.649
		c2.186-1.409,4.523-2.592,6.924-3.631c2.394-1.069,4.943-1.772,7.509-2.328l1.94-0.354c0.647-0.109,1.308-0.141,1.96-0.213
		c0.654-0.072,1.309-0.125,1.966-0.126l2.026-0.049l1.884,0.099c0.316,0.021,0.623,0.03,0.947,0.062l0.995,0.125
		c0.659,0.09,1.33,0.152,1.976,0.27l1.92,0.39c2.531,0.614,5.025,1.371,7.379,2.441c2.352,1.059,4.647,2.224,6.79,3.625
		c2.159,1.369,4.227,2.864,6.195,4.473c1.979,1.596,3.837,3.328,5.651,5.1c1.816,1.771,3.506,3.664,5.163,5.583
		c1.638,1.935,3.209,3.929,4.72,5.973c1.496,2.066,2.912,4.146,4.21,6.413l0.257,0.449l-0.247,0.531
		c-1.104,2.369-2.338,4.572-3.66,6.772c-1.322,2.189-2.757,4.312-4.295,6.365c-3.063,4.115-6.596,7.908-10.539,11.276
		c-1.979,1.678-4.079,3.223-6.276,4.637c-2.192,1.425-4.539,2.626-6.952,3.682c-2.407,1.084-4.972,1.811-7.556,2.388
		c-2.594,0.566-5.25,0.808-7.901,0.874c-1.438-0.073-2.491-0.03-3.927-0.215c-0.674-0.077-1.362-0.128-2.021-0.232l-1.956-0.346
		c-2.586-0.546-5.15-1.241-7.564-2.288c-2.42-1.02-4.775-2.183-6.979-3.575c-2.202-1.389-4.301-2.92-6.279-4.578
		c-3.938-3.339-7.449-7.113-10.503-11.194c-1.543-2.028-2.954-4.148-4.276-6.314c-1.314-2.172-2.555-4.38-3.589-6.701l-0.039-0.088
		L23.488-151.277z M23.907-151.188c2.666,4.201,5.727,8.139,9.027,11.806c3.325,3.697,6.959,7.083,10.88,10.026
		c1.963,1.468,4.023,2.784,6.138,3.975c2.104,1.213,4.32,2.191,6.568,3.034c2.249,0.852,4.578,1.424,6.916,1.872l1.765,0.273
		c0.585,0.08,1.154,0.104,1.731,0.161c1.062,0.142,2.533,0.083,3.606,0.123c2.373-0.1,4.748-0.27,7.075-0.782
		c2.318-0.518,4.619-1.16,6.837-2.067c2.216-0.901,4.395-1.936,6.457-3.201c2.066-1.253,4.064-2.639,5.966-4.165
		c1.897-1.532,3.702-3.187,5.443-4.915c1.747-1.725,3.38-3.569,4.974-5.452c1.58-1.894,3.091-3.854,4.529-5.87
		c1.42-2.016,2.799-4.12,3.975-6.236l0.01,0.979c-1.07-2.172-2.353-4.346-3.681-6.439c-1.334-2.104-2.789-4.134-4.349-6.081
		c-1.541-1.962-3.219-3.815-4.975-5.584c-1.754-1.773-3.646-3.402-5.597-4.946c-1.974-1.516-4.065-2.867-6.224-4.076
		c-2.165-1.202-4.44-2.178-6.756-2.98c-2.311-0.826-4.709-1.336-7.101-1.714c-2.432-0.378-4.691-0.428-7.284-0.4
		c-2.29,0.125-4.762,0.395-7.084,0.901c-2.337,0.535-4.654,1.196-6.885,2.116c-2.229,0.916-4.419,1.965-6.487,3.246
		c-2.081,1.254-4.105,2.626-6.027,4.149c-1.908,1.538-3.77,3.151-5.54,4.873c-1.768,1.724-3.462,3.535-5.088,5.414
		c-1.612,1.889-3.183,3.827-4.66,5.841C26.612-155.326,25.198-153.295,23.907-151.188z"/>
</g>
<g>
	<path d="M75.533-147.415c6.998-0.082,12.747,5.547,12.817,12.562c0.071,7.003-5.563,12.758-12.561,12.829
		c-7.025,0.071-12.764-5.563-12.835-12.583C62.879-141.622,68.508-147.349,75.533-147.415z"/>
	<path fill="#00A8C4" d="M75.541-147.614c0,0,0.312,0.009,0.896,0.027c0.29,0,0.655,0.025,1.09,0.077
		c0.438,0.03,0.931,0.099,1.482,0.202c1.101,0.204,2.469,0.496,3.963,1.181c1.486,0.67,3.135,1.716,4.491,3.351
		c1.341,1.626,2.319,3.847,2.532,6.284c0.032,0.303,0.021,0.611,0.029,0.919l-0.003,0.463l-0.002,0.231
		c0.001-0.008-0.004,0.178-0.003,0.111l-0.003,0.025l-0.006,0.051l-0.012,0.103c-0.079,0.556-0.126,1.062-0.298,1.755
		c-0.277,1.317-0.801,2.44-1.42,3.567c-1.279,2.217-3.081,4.064-5.166,5.558c-0.536,0.354-1.077,0.708-1.662,0.993
		c-0.558,0.34-1.175,0.566-1.78,0.822c-0.62,0.221-1.244,0.458-1.9,0.591c-0.67,0.198-1.262,0.261-2.043,0.372
		c-1.157,0.128-2.726,0.089-4.062-0.168c-1.359-0.301-2.69-0.791-3.898-1.501c-1.198-0.722-2.292-1.606-3.24-2.62
		c-0.925-1.03-1.725-2.167-2.318-3.394c-0.586-1.224-1.03-2.513-1.208-3.817c-0.127-0.647-0.137-1.298-0.173-1.938l-0.004-0.12
		l-0.002-0.06l0.002-0.163l0.013-0.205l0.026-0.407c0.023-0.286,0.018-0.506,0.066-0.841c0.104-0.652,0.193-1.343,0.377-1.9
		c0.084-0.291,0.166-0.579,0.248-0.864c0.1-0.28,0.222-0.55,0.331-0.82c0.435-1.084,1.072-2.025,1.725-2.862
		c1.37-1.646,3.01-2.714,4.49-3.41c1.488-0.708,2.854-1.029,3.954-1.247c0.275-0.051,0.536-0.1,0.782-0.145
		c0.247-0.027,0.479-0.052,0.695-0.076c0.429-0.056,0.794-0.086,1.092-0.09c0.593-0.023,0.909-0.036,0.909-0.036L75.541-147.614z
		 M75.535-147.214c0,0-0.306,0.024-0.879,0.07c-0.288,0.005-0.636,0.083-1.041,0.172c-0.411,0.067-0.864,0.221-1.361,0.41
		c-0.982,0.392-2.134,1.019-3.16,2.031c-1.035,0.993-1.967,2.294-2.654,3.778c-0.327,0.753-0.646,1.523-0.864,2.349
		c-0.263,0.806-0.376,1.718-0.45,2.477c-0.029,0.195-0.016,0.518-0.025,0.772l-0.007,0.409l-0.003,0.205
		c-0.002,0.104,0.001-0.112,0.002-0.083l0.002,0.021l0.004,0.043l0.009,0.085c0.044,0.456,0.036,0.923,0.141,1.38
		c0.112,0.93,0.406,1.843,0.744,2.758c0.356,0.913,0.891,1.765,1.485,2.594c0.624,0.811,1.386,1.526,2.221,2.179
		c0.855,0.622,1.798,1.15,2.809,1.587c1.054,0.427,1.974,0.698,3.31,0.856c1.033,0.098,2.286,0.061,3.408-0.198
		c1.131-0.296,2.23-0.749,3.204-1.4c0.965-0.657,1.822-1.463,2.481-2.395c0.639-0.944,1.131-1.958,1.416-3.001
		c0.27-1.027,0.439-2.121,0.413-3.042c0.037-0.416-0.025-1.027-0.049-1.568l-0.003-0.104l-0.002-0.051l-0.001-0.026
		c0.001-0.084-0.002,0.085-0.003,0.06l-0.027-0.178l-0.052-0.353c-0.037-0.233-0.042-0.467-0.095-0.693
		c-0.336-1.817-0.929-3.443-1.683-4.908c-0.755-1.461-1.722-2.735-2.779-3.711c-1.051-0.992-2.217-1.598-3.209-1.968
		c-0.504-0.175-0.96-0.32-1.367-0.375c-0.404-0.077-0.752-0.147-1.049-0.143c-0.583-0.028-0.895-0.043-0.895-0.043L75.535-147.214z"
		/>
</g>
</svg>
